<svg width="1280" height="720" xmlns="http://www.w3.org/2000/svg" xmlns:xlink="http://www.w3.org/1999/xlink" overflow="hidden"><defs><clipPath id="clip0"><path d="M0 0 1280 0 1280 720 0 720Z" fill-rule="evenodd" clip-rule="evenodd"/></clipPath></defs><g clip-path="url(#clip0)"><rect x="0" y="0" width="1280" height="720" fill="#FFFFFF"/><path d="M640 482C592.525 482 546.992 483.802 513.43 486.99 479.871 490.177 461 494.485 461 498.999 461 503.515 479.871 507.823 513.43 511.01 546.992 514.198 592.525 515.997 640 515.997 687.475 515.997 733.008 514.198 766.57 511.01 800.129 507.823 819 503.515 819 498.999 819 494.485 800.129 490.177 766.57 486.99 733.008 483.802 687.475 482 640 482Z" fill="#F2E7DD" fill-rule="evenodd"/><path d="M629.781 215.002C625.449 215.002 621.009 217.319 618.309 220.797 614.589 225.577 613.667 232.017 614.232 238.013 615.006 246.446 618.486 254.876 616.552 263.129 614.649 271.202 608.046 277.111 602.275 283.078 596.534 289.044 591.003 296.614 592.162 304.807 593.441 313.743 602.335 320.393 602.899 329.419 603.287 335.859 599.272 341.708 598.32 348.091 596.981 357.085 602.037 366.111 609.145 371.75 616.285 377.42 625.209 380.24 634.043 382.467 639.649 383.866 645.648 384.997 651.446 384.997 657.09 384.997 662.543 383.925 667.268 380.983 671.967 379.26 676.311 376.737 679.969 373.354 688.625 365.308 692.64 351.948 687.881 341.145 685.977 336.869 682.824 333.069 681.963 328.439 680.653 321.669 684.491 315.139 687.584 308.964 690.559 303.087 692.997 296.081 690.976 289.994 690.767 289.401 690.529 288.807 690.232 288.214 690.232 288.184 690.202 288.154 690.202 288.124 688.178 284.147 684.224 281.415 682.2 277.438 682.17 277.408 682.17 277.378 682.14 277.348 681.843 276.695 681.575 276.072 681.368 275.388 678.66 267.135 682.944 256.599 677.441 249.68 672.949 244.01 664.472 244.13 657.719 241.487 653.497 239.826 649.747 236.886 647.131 233.204 642.937 227.267 641.003 219.014 634.4 215.987 632.934 215.312 631.365 215.002 629.781 215.002Z" fill="#5AD199" fill-rule="evenodd"/><path d="M647.035 255C646.375 255 645.712 255.433 645.712 256.302L645.712 283.34 626.885 267.361C626.602 267.123 626.296 267.02 625.998 267.02 624.926 267.02 624.003 268.345 625.02 269.209L645.712 286.797 645.858 402.728C645.858 403.574 646.504 403.997 647.152 403.997 647.805 403.997 648.46 403.567 648.46 402.698L648.343 332.406C648.371 332.345 648.43 332.315 648.46 332.258 656.737 320.155 665.043 308.052 673.317 295.949 673.997 294.972 673.096 294.038 672.168 294.038 671.766 294.038 671.359 294.214 671.071 294.637 663.477 305.696 655.91 316.755 648.343 327.786L648.343 256.272C648.343 255.426 647.69 255 647.035 255Z" fill="#DB8E6A" fill-rule="evenodd"/><path d="M620.368 310.002C619.441 310.002 618.535 310.216 617.743 310.701 615.754 311.897 615 314.318 615 316.566 615 319.337 615.964 322.021 617.138 324.56 619.009 328.586 621.418 332.41 624.1 335.998 629.433 331.797 635.79 328.616 639.798 323.187 640.763 321.876 641.605 320.416 641.876 318.813 641.997 317.994 641.967 317.178 641.636 316.419 641.304 315.661 640.641 315.049 639.92 314.61 638.763 313.897 637.412 313.554 636.063 313.554 635.37 313.554 634.679 313.644 634.013 313.823 632.024 314.318 630.278 315.544 629.012 317.119L628.8 317.208C627.775 315.105 626.601 312.975 624.703 311.517 623.483 310.588 621.899 310.002 620.368 310.002Z" fill="#FFD173" fill-rule="evenodd"/><path d="M669.406 272.003C667.904 272.003 666.44 272.756 665.401 273.889 664.34 275.046 663.751 276.598 663.575 278.149L663.486 278.302C661.955 277.298 660.335 276.324 658.539 276.112 658.341 276.089 658.14 276.076 657.938 276.076 656.25 276.076 654.504 276.871 653.767 278.394 653 280.007 653.502 281.982 654.415 283.506 655.563 285.392 657.272 286.823 659.038 288.07 661.896 290.048 664.958 291.661 668.139 293 669.849 287.978 672.587 283.202 672.911 277.906 673 276.598 672.941 275.258 672.438 274.042 672.203 273.464 671.85 272.887 671.35 272.521 670.791 272.156 670.143 272.003 669.495 272.003 669.465 272.003 669.435 272.003 669.406 272.003Z" fill="#FFD173" fill-rule="evenodd"/><path d="M638.057 239.003C636.917 239.003 635.764 239.365 634.818 239.997 633.491 240.865 632.525 242.184 632.013 243.654L631.861 243.773C630.594 242.454 629.177 241.137 627.457 240.508 626.833 240.279 626.154 240.158 625.483 240.158 624.208 240.158 622.956 240.593 622.148 241.555 621 242.935 621.061 244.943 621.603 246.62 622.328 248.689 623.686 250.456 625.164 252.075 627.548 254.683 630.262 256.931 633.1 259 635.966 254.564 639.798 250.638 641.366 245.633 641.759 244.402 642 243.113 641.79 241.855 641.698 241.225 641.458 240.596 641.034 240.118 640.611 239.607 639.978 239.307 639.314 239.159 638.903 239.053 638.48 239.003 638.057 239.003Z" fill="#FFD173" fill-rule="evenodd"/><path d="M592.107 399.003C591.214 399.003 590.326 399.148 589.464 399.478 586.844 400.463 585.089 402.878 583.748 405.322 576.188 418.834 576.425 435.176 576.843 450.686 566.81 438.487 554.069 428.586 539.78 421.965 537.362 420.828 534.795 419.801 532.202 419.801 531.732 419.801 531.262 419.833 530.792 419.906 524.509 420.89 521.414 428.197 520.908 434.55 519.746 449.016 525.819 463.003 531.774 476.244 524.291 475.034 516.743 473.824 509.185 473.824 507.992 473.824 506.8 473.854 505.607 473.919 496.854 474.395 487.983 476.9 481.228 482.509 479.055 484.327 477 486.772 477.12 489.605 477.298 493.781 481.823 496.226 485.811 497.451 492.391 499.417 499.237 500.431 506.112 500.431L506.112 500.91 726.782 500.91 727.17 500.997C729.997 488.413 719.877 475.738 707.761 471.264 701.818 469.042 695.562 468.283 689.217 468.283 682.534 468.283 675.751 469.125 669.123 469.982 678.796 458.887 681.416 443.051 679.721 428.438 679.066 422.859 677.458 416.745 672.725 413.764 670.778 412.542 668.663 412.028 666.482 412.028 661.327 412.028 655.817 414.896 651.381 417.997 640.843 425.334 631.287 434.044 623.012 443.885 619.736 428.167 613.368 412.213 600.627 402.519 598.152 400.638 595.094 399.003 592.107 399.003Z" fill="#5AD199" fill-rule="evenodd"/><path d="M703.582 410.003C701.205 410.003 698.807 410.881 696.863 412.259 694.121 414.225 692.124 417.087 690.545 420.099 684.47 431.458 683.367 444.728 682.413 457.607 676.486 449.974 669.485 443.058 661.143 438.197 657.625 436.134 653.314 434.529 649.325 434.529 646.625 434.529 644.073 435.265 642.016 437.095 637.34 441.267 637.815 448.632 639.307 454.715 641.481 463.66 645.084 472.247 649.881 480.117 647.681 479.336 645.419 479.003 643.135 479.003 637.59 479.003 631.915 480.954 626.703 483.13 622.86 484.77 618.601 487.064 617.796 491.151 617 495.163 630.734 501 635.323 501 635.538 501 635.736 500.985 635.909 500.96L797.615 500.96C802.233 497.381 807 492.789 807 486.946 807 480.566 801.22 475.705 795.353 473.141 788.216 470.036 780.552 469.019 772.751 469.019 765.505 469.019 758.136 469.895 750.962 470.787 757.25 466.432 762.91 461.156 767.676 455.163 770.239 451.913 772.591 448.364 773.396 444.28 774.169 440.226 773.038 435.573 769.731 433.099 767.821 431.694 765.417 431.143 763.007 431.143 762.294 431.143 761.584 431.193 760.883 431.281 756.652 431.817 752.661 433.695 748.878 435.693 738.539 441.21 728.948 448.126 720.426 456.147 721.439 442.074 721.082 426.748 712.562 415.479 710.953 413.331 708.986 411.335 706.454 410.468 705.521 410.148 704.552 410.003 703.582 410.003Z" fill="#75D9C3" fill-rule="evenodd"/><path d="M566.998 494 566.998 494C562.684 494.327 558.343 494.537 554.003 494.567 554.003 494.684 554.032 494.834 554.032 494.951L554.003 495.131C554.327 498.401 554.504 501.699 554.563 505L554.623 505C565.993 504.733 577.364 503.869 588.645 502.384L589 501.789C582.179 498.102 574.645 495.755 566.968 494.924 566.968 494.597 566.998 494.297 566.998 494Z" fill="#053B5C" fill-rule="evenodd"/><path d="M564.927 325.003C561.627 326.224 558 326.461 554.466 326.639 549.185 326.902 543.898 327.035 538.609 327.035 528.303 327.035 517.993 326.532 507.719 325.508 504.659 330.751 503.916 337.157 503.648 343.326 502.757 363.616 506.352 384.114 514.079 402.915 507.719 430.207 501.36 457.529 495 484.851L495.207 484.911C495.18 485.091 495.15 485.299 495.12 485.507L495.417 485.537C499.458 487.028 503.469 488.517 507.512 490.006 507.572 490.031 507.654 490.046 507.734 490.046 507.847 490.046 507.951 490.016 507.986 489.946L508.016 489.946C518.447 461.373 528.343 432.592 537.703 403.63 537.703 392.397 539.041 378.453 539.815 364.807 545.014 407.444 550.245 452.346 553.692 494 558.06 493.97 562.428 493.76 566.768 493.432 569.412 439.771 571.997 385.783 565.818 332.45 565.55 329.977 565.251 327.505 564.927 325.003Z" fill="#449E8B" fill-rule="evenodd"/><path d="M495.233 486C494.726 489.181 494.014 492.333 493.003 495.397L493.24 495.456C496.659 496.885 500.228 497.907 503.767 498.929 510.816 500.941 517.892 502.985 524.97 504.998L525 504.882C520.092 499.424 514.295 494.725 507.901 491.049 507.991 490.816 508.078 490.583 508.138 490.348L508.108 490.348C508.073 490.417 507.968 490.446 507.856 490.446 507.776 490.446 507.694 490.431 507.634 490.407 503.588 488.949 499.574 487.49 495.53 486.029L495.233 486Z" fill="#053B5C" fill-rule="evenodd"/><path d="M582.431 278.003C581.836 278.21 581.212 278.39 580.588 278.568 580.885 279.045 581.182 279.551 581.449 280.028L581.479 280.056C575.712 284.195 569.887 288.216 564 292.145 564.564 296.077 565.011 300.038 565.368 303.997L565.665 303.967C577.11 298.668 588.555 293.368 600 288.066L600 288.066C595.274 288.662 590.488 289.079 585.731 289.257 584.72 285.475 583.619 281.724 582.431 278.003Z" fill="#F2E7DD" fill-rule="evenodd"/><path d="M532.869 270C525.1 273.445 517.536 277.421 510.295 281.874L510 282.08C511.094 283.743 512.186 285.436 513.31 287.069 514.727 289.235 516.176 291.371 517.623 293.538 521.789 299.74 526.015 305.915 530.358 312L530.594 311.85C536.296 309.891 541.468 306.745 546.577 303.539 552.309 299.949 558.012 296.267 563.625 292.498 569.476 288.582 575.265 284.573 580.997 280.448L580.968 280.42C580.702 279.944 580.407 279.441 580.112 278.964 578.576 276.382 577.04 273.829 575.531 271.246 575.355 270.98 575.208 270.713 575.03 270.446 574.615 270.653 574.203 270.863 573.789 271.04 569.682 272.999 565.605 274.988 561.558 277.035 554.585 280.537 547.671 284.189 540.847 287.929 538.453 281.844 535.822 275.848 532.869 270Z" fill="#F2E7DD" fill-rule="evenodd"/><path d="M571.533 264C569.337 264.847 567.139 265.723 564.973 266.662 564.04 268.824 562.686 270.766 561.003 272.362 561.152 273.835 561.303 275.338 561.452 276.842L561.543 276.997C565.665 274.838 569.817 272.739 574 270.671L573.848 270.326C573.247 268.167 572.466 266.068 571.533 264Z" fill="#F2E7DD" fill-rule="evenodd"/><path d="M546.736 234.003C545.575 234.003 544.454 234.053 543.411 234.166 543.65 234.882 543.888 235.63 544.155 236.379 544.215 236.587 544.275 236.766 544.362 236.977 544.602 237.635 544.779 238.562 544.869 239.609 545.256 243.646 544.512 250.016 542.342 253.845L542.045 254.204C535.327 249.298 528.995 243.824 523.168 237.904L523.138 236.856C523.138 236.766 523.138 236.678 523.138 236.587L523.08 236.587C518.027 240.654 512.971 244.751 507.978 248.878 507.237 249.479 506.522 250.077 505.778 250.675 504.233 251.93 502.658 253.277 501.617 254.98 499.003 259.318 500.398 264.91 502.45 269.547 504.41 273.913 506.879 278.07 509.493 282.107L509.791 281.898C517.076 277.412 524.686 273.405 532.503 269.934 535.474 275.827 538.12 281.868 540.53 288 547.395 284.232 554.351 280.552 561.367 277.023L561.277 276.874C561.13 275.438 560.98 274.003 560.833 272.597 562.495 271.072 563.834 269.218 564.755 267.153 566.894 266.256 569.067 265.42 571.236 264.611 572.157 264.282 573.079 263.953 574 263.624 573.733 261.531 573.436 259.406 573.109 257.314L572.872 257.314C572.812 257.075 571.443 252.679 570.819 250.376L570.909 250.345C571.056 250.345 571.206 250.315 571.354 250.285 570.789 249.208 570.045 248.163 569.394 247.055 568.233 245.171 564.398 239.338 563.002 237.665 561.357 235.703 553.395 234.003 546.736 234.003Z" fill="#FFD173" fill-rule="evenodd"/><path d="M563.727 292C558.125 295.782 552.434 299.476 546.714 303.077 541.615 306.294 536.454 309.45 530.763 311.416L530.528 311.566C526.194 305.461 521.977 299.266 517.819 293.013L517.819 293.013C518.379 297.777 518.971 302.512 519.53 307.247 515.548 313.232 511.687 319.277 508 325.442 508.059 325.442 508.119 325.442 508.149 325.472 518.341 326.495 528.572 326.997 538.797 326.997 544.044 326.997 549.289 326.865 554.529 326.602 558.036 326.455 561.634 326.187 564.908 324.967 565.26 324.847 565.614 324.697 565.997 324.519 565.968 317.611 565.673 310.701 565.084 303.853 564.73 299.893 564.286 295.932 563.727 292Z" fill="#FFD173" fill-rule="evenodd"/><path d="M609.752 269C609.205 269 608.642 269.085 608.082 269.211 607.608 269.241 607.17 269.271 606.728 269.331 606.036 269.389 605.375 269.509 604.746 269.718 604.053 269.928 603.361 270.257 602.795 270.704 602.227 271.153 601.724 271.69 601.441 272.317 601.032 273.243 601.032 274.259 601.032 275.245 601 277.307 601 279.488 602.039 281.309 602.858 282.684 604.18 283.698 605.721 284.325 606.54 284.626 607.357 284.834 608.237 284.925 608.333 284.955 608.428 284.955 608.555 284.982 608.69 284.992 608.827 284.997 608.964 284.997 609.297 284.997 609.625 284.962 609.937 284.834 610.442 284.654 610.82 284.267 611.166 283.848 613.619 280.86 613.997 276.768 613.463 273.004 613.273 271.72 612.898 270.345 611.795 269.57 611.195 269.156 610.492 269 609.752 269Z" fill="#FBB28F" fill-rule="evenodd"/><path d="M602.051 209C599.298 209 596.551 209.689 594.197 211.023 590.492 213.118 587.804 216.837 587 220.883 587.693 220.96 588.388 221 589.081 221 592.329 221 595.565 220.155 598.338 218.55 601.859 216.512 604.578 213.326 605.938 209.664L605.997 209.488C604.711 209.161 603.38 209 602.051 209Z" fill="#75D9C3" fill-rule="evenodd"/><path d="M590.7 257.003C590.252 257.003 589.742 257.344 589.354 257.654 585.852 260.786 582.467 264.043 579.234 267.457 578.157 268.575 577.079 269.752 576.03 270.93L576 270.93C577.529 273.63 579.085 276.298 580.642 278.997 581.27 278.812 581.899 278.625 582.497 278.409 589.113 276.298 595.761 273.908 601.298 269.846 602.736 268.822 604.084 267.673 605.341 266.37 605.64 266.06 606 265.656 605.879 265.224 605.789 264.914 605.55 264.726 605.281 264.572 603.903 263.699 602.253 263.47 600.599 263.47 600.131 263.47 599.664 263.488 599.203 263.517 595.731 263.702 592.258 264.385 588.934 265.502 590.043 263.301 590.85 260.911 591.388 258.459 591.449 258.087 591.509 257.623 591.27 257.281 591.119 257.094 590.911 257.003 590.7 257.003Z" fill="#FBB28F" fill-rule="evenodd"/><path d="M605 223.003 605 223.003C601.394 223.15 597.85 224.519 595.096 226.839 592.283 229.187 590.26 232.489 589.441 236.086L589 236.116C589 236.266 589 236.386 589.03 236.533 589.994 236.85 590.994 236.997 591.998 236.997 594.956 236.997 597.939 235.706 600.107 233.618 602.947 230.883 604.5 226.956 605 223.003Z" fill="#75D9C3" fill-rule="evenodd"/><path d="M585.436 191C584.115 192.48 582.943 194.11 581.982 195.829 580.872 197.883 580.003 200.146 580.091 202.501 580.121 204.159 580.663 205.759 581.324 207.3 582.463 210.015 584.175 212.763 586.846 214 586.876 213.939 586.936 213.848 586.967 213.79 589.009 210.317 589.997 206.212 589.728 202.169 589.458 198.123 587.958 194.169 585.436 191Z" fill="#75D9C3" fill-rule="evenodd"/><path d="M576.071 221C573.365 221 570.664 221.985 569 223.988 569.788 225.162 570.634 226.334 571.813 227.124 572.994 227.887 574.384 228.269 575.776 228.503 577.654 228.83 579.572 229 581.49 229 583.681 229 585.868 228.781 587.997 228.326 587.997 228.18 587.967 228.033 587.967 227.887L587.878 227.887C585.548 224.926 582.522 222.29 578.833 221.352 577.938 221.118 577.003 221 576.071 221Z" fill="#75D9C3" fill-rule="evenodd"/><path d="M586.021 213C585.765 213 585.478 213.214 585.513 213.534 587.326 224.874 588.538 236.274 589.203 247.704 583.306 248.297 577.41 249.01 571.543 249.87 571.394 249.9 571.241 249.93 571.091 249.93L571 249.96C571.635 252.247 573.026 256.61 573.115 256.847L573.329 256.847 576.201 256.52C577.168 260.024 578.014 263.557 578.771 267.12L578.951 267.297C582.217 264.031 585.635 260.914 589.173 257.917 589.564 257.62 590.079 257.293 590.531 257.293 590.745 257.293 590.955 257.381 591.108 257.56 591.349 257.887 591.288 258.331 591.197 258.687 590.684 261.034 589.868 263.32 588.748 265.427 592.106 264.357 595.613 263.704 599.12 263.527 599.605 263.492 600.1 263.472 600.59 263.472 602.241 263.472 603.884 263.714 605.258 264.537 605.529 264.684 605.771 264.864 605.862 265.16 605.984 265.574 605.621 265.961 605.319 266.257 604.049 267.504 602.688 268.604 601.235 269.584 595.643 273.471 588.929 275.757 582.247 277.777 583.456 281.487 584.576 285.227 585.605 288.997 590.442 288.82 595.31 288.404 600.118 287.811 602.114 287.574 604.107 287.277 606.073 286.95 606.225 285.97 606.256 284.961 606.164 283.951L606.164 283.921C604.684 283.297 603.414 282.29 602.627 280.924 601.629 279.114 601.629 276.947 601.659 274.897 601.659 273.917 601.659 272.907 602.053 271.987 602.325 271.364 602.807 270.83 603.353 270.384 603.896 269.94 604.562 269.614 605.227 269.404 605.832 269.197 606.466 269.077 607.132 269.02L607.071 268.664C607.586 263.467 607.977 258.214 608.28 252.987 609.189 252.898 610.126 252.78 611.032 252.691 611.335 250.494 611.667 248.327 612 246.16L611.848 246.13C604.592 246.427 597.334 246.901 590.11 247.614 589.444 236.124 588.205 224.697 586.389 213.324 586.354 213.097 586.194 213 586.021 213Z" fill="#053B5C" fill-rule="evenodd"/><path d="M537.96 223.003C536.41 223.003 534.809 223.101 533.269 223.101 532.841 223.101 532.418 223.093 532 223.073L532 223.073C536.284 228.373 540.567 233.7 544.878 238.997L545 238.97C544.909 237.921 544.729 236.994 544.486 236.335 544.397 236.124 544.336 235.945 544.276 235.737 544.004 234.987 543.764 234.238 543.521 233.522 542.345 230.019 541.2 226.545 540.022 223.073L539.934 223.073C539.29 223.02 538.629 223.003 537.96 223.003Z" fill="#ED867A" fill-rule="evenodd"/><path d="M549.019 192.003C546.733 192.003 544.451 192.257 542.19 192.599 535.228 193.672 528.388 195.754 522.144 199.097 520.732 199.854 519.354 200.673 518.003 201.589L518.242 201.997C521.123 201.934 524.004 201.809 526.855 201.682 534.898 201.272 542.942 200.58 550.924 199.6 554.617 199.16 558.307 198.654 562 198.087 561.67 195.69 559.389 194.114 557.198 193.293 554.975 192.506 552.696 192.127 550.355 192.032 549.909 192.011 549.465 192.003 549.019 192.003Z" fill="#FFD173" fill-rule="evenodd"/><path d="M551.219 200C543.207 200.922 535.165 201.572 527.123 201.959 527.184 205.283 526.853 208.635 526.163 211.899L525.924 212.016C524.994 210.95 523.703 210.09 522.264 209.91 522.128 209.898 521.992 209.89 521.856 209.89 520.538 209.89 519.2 210.533 518.602 211.69 518.003 212.848 518.212 214.241 518.751 215.43 519.472 217.12 520.823 218.515 522.473 219.375 522.982 219.641 523.524 219.851 524.124 220.028L524.154 220.028C523.882 225.517 523.703 231.005 523.582 236.524 523.582 236.614 523.582 236.701 523.582 236.791L523.612 237.83C529.495 243.703 535.886 249.133 542.668 254L542.968 253.644C545.158 249.846 545.909 243.526 545.518 239.522L545.518 239.522 545.397 239.549C541.108 234.299 536.846 229.018 532.584 223.765L532.584 223.765C533 223.785 533.421 223.793 533.847 223.793 535.379 223.793 536.972 223.696 538.514 223.696 539.18 223.696 539.838 223.713 540.478 223.765L540.566 223.765C542.668 223.589 545.006 223.262 546.927 222.579 548.547 222.016 550.168 221.214 550.979 219.731 551.519 218.782 551.609 217.625 551.67 216.526 552 211.009 551.849 205.49 551.219 200Z" fill="#FBB28F" fill-rule="evenodd"/><path d="M549.091 188.002C549.032 188.002 548.973 188.002 548.943 188.032 537.065 188.685 525.216 190.017 513.456 191.944 512.693 192.093 511.931 192.21 511.138 192.36 510.111 192.536 509.057 192.716 508 192.922 508.411 194.82 508.586 196.747 508.527 198.704L508.557 198.704C508.616 198.614 508.675 198.524 508.734 198.407 513.279 198.524 517.856 198.704 522.401 198.97L522.43 199C528.532 195.858 535.217 193.901 542.021 192.892 544.231 192.571 546.46 192.332 548.694 192.332 549.13 192.332 549.564 192.34 550 192.36L550 192.3C549.648 190.878 549.355 189.454 549.091 188.002Z" fill="#FBF5F3" fill-rule="evenodd"/><path d="M531.958 180.002C527.012 180.002 522.129 181.135 518.222 183.989 515.276 186.121 513.092 189.062 511 192 511.797 191.855 512.562 191.741 513.33 191.596 525.15 189.722 537.059 188.428 548.997 187.793L548.997 187.706C548.408 185.632 546.846 183.931 544.959 182.808 543.102 181.685 540.951 181.106 538.799 180.675 536.566 180.244 534.256 180.002 531.958 180.002Z" fill="#053B5C" fill-rule="evenodd"/><path d="M508.551 199.002C508.491 199.119 508.432 199.208 508.372 199.297 507.135 201.419 505.397 203.216 503.333 204.543 499.326 207.138 494.346 207.817 490.368 210.382 488.069 211.855 486.153 213.917 484.886 216.336 483.619 218.752 483 221.701 484.092 224.207 484.767 225.799 486.064 227.066 487.245 228.361 489.188 230.456 490.898 232.813 491.722 235.556 492.311 237.529 492.371 239.594 492.725 241.627 493.079 243.662 493.787 245.754 495.289 247.141 495.613 247.465 495.967 247.7 496.351 247.935 497.588 248.673 499.031 248.998 500.477 248.998 500.536 248.998 500.598 248.998 500.66 248.998 502.608 248.998 506.338 248.567 508.078 248.025L508.432 248.465C513.382 244.397 518.394 240.359 523.404 236.351L523.461 236.351C523.579 230.867 523.755 225.415 524.022 219.961L523.993 219.961C523.404 219.785 522.872 219.577 522.372 219.312 520.75 218.458 519.424 217.071 518.716 215.393 518.186 214.212 517.981 212.828 518.57 211.676 519.156 210.528 520.471 209.889 521.765 209.889 521.899 209.889 522.032 209.896 522.166 209.909 523.579 210.087 524.847 210.941 525.76 212.001L525.995 211.884C526.673 208.641 526.997 205.311 526.938 202.008L526.938 202.008C524.139 202.127 521.31 202.243 518.481 202.303L518.246 201.922C519.572 201.065 520.926 200.3 522.312 199.592L522.282 199.562C517.716 199.297 513.117 199.119 508.551 199.002Z" fill="#053B5C" fill-rule="evenodd"/><path d="M598.003 398 601.575 410 689.665 410 692.997 398Z" fill="#40B4E5" fill-rule="evenodd"/><path d="M605 410.003 616.004 500.997 675.036 500.997 687 410.003Z" fill="#053B5C" fill-rule="evenodd"/><path d="M667.866 440C666.09 441.046 664.313 442.062 662.535 443.105 660.669 444.181 658.803 445.287 656.938 446.36 659.219 450.333 661.5 454.303 663.749 458.306 660.848 458.276 657.945 458.246 655.042 458.246 655.102 456.365 655.162 454.514 655.192 452.661L655.192 452.661C655.132 452.691 655.102 452.751 655.072 452.811 654.687 453.528 654.301 454.243 653.918 454.961 652.289 458.008 650.659 461.053 649.03 464.1 649 464.128 649 464.158 649 464.188 649 464.218 649 464.248 649.03 464.278 651.045 467.802 653.057 471.356 655.102 474.88 655.102 474.91 655.132 474.937 655.162 474.997 655.192 473.327 655.219 471.714 655.249 470.102L655.428 470.102C656.908 470.132 658.418 470.132 659.93 470.159L660.995 470.159C661.167 470.169 661.333 470.174 661.5 470.174 661.943 470.174 662.373 470.134 662.801 469.981 663.662 469.653 664.373 469.146 664.876 468.369 665.617 467.205 666.326 466.039 667.067 464.875 669.082 461.71 671.007 458.454 673.109 455.349 673.495 454.752 673.761 454.095 673.908 453.378 673.938 453.14 673.968 452.901 673.997 452.691L673.997 452.006C673.968 451.886 673.968 451.735 673.938 451.587 673.851 450.93 673.672 450.243 673.346 449.646 671.54 446.481 669.734 443.316 667.955 440.15 667.925 440.09 667.896 440.06 667.866 440Z" fill="#FFFFFF" fill-rule="evenodd"/><path d="M640.641 425C640.465 425.029 640.288 425.058 640.142 425.087 639.202 425.233 638.377 425.608 637.644 426.159 637.143 426.563 636.674 427.027 636.351 427.576 634.557 430.702 632.794 433.857 631.032 436.982 631.032 437.009 631.002 437.038 631.002 437.096 632.646 437.964 634.263 438.861 635.939 439.76 637.938 440.83 639.935 441.928 641.963 443 644.167 439.123 646.342 435.215 648.546 431.309 650.014 433.769 651.483 436.2 652.924 438.63 651.337 439.527 649.75 440.424 648.163 441.321 648.223 441.35 648.311 441.35 648.368 441.35 650.044 441.265 651.72 441.177 653.393 441.09 654.835 441.031 656.274 440.975 657.715 440.888 658.771 440.83 659.86 440.8 660.946 440.742 660.975 440.742 661.035 440.713 661.035 440.713 661.064 440.686 661.094 440.657 661.094 440.628 663.061 437.184 664.971 433.74 666.941 430.296 666.941 430.238 666.97 430.208 667 430.153L667 430.153C665.588 430.933 664.209 431.742 662.797 432.525 662.767 432.466 662.767 432.437 662.738 432.408 661.711 430.702 660.682 428.993 659.682 427.287 659.095 426.332 658.302 425.724 657.184 425.493 656.92 425.435 656.626 425.348 656.392 425.348 655.716 425.318 655.099 425.318 654.422 425.318 653.601 425.318 652.776 425.318 651.925 425.289 650.836 425.289 649.78 425.26 648.721 425.26 647.87 425.233 647.048 425.233 646.194 425.233 645.592 425.219 644.982 425.219 644.372 425.219 643.763 425.219 643.153 425.219 642.551 425.204 642.198 425.175 641.815 425.058 641.462 425Z" fill="#FFFFFF" fill-rule="evenodd"/><path d="M622 442.003 622 442.033C623.379 442.88 624.788 443.73 626.195 444.577 626.164 444.638 626.164 444.669 626.134 444.699 625.087 446.485 624.008 448.302 622.959 450.121 622.211 451.393 622.211 452.726 622.871 454.028 623.829 455.967 624.906 457.875 625.895 459.814 627.274 462.449 628.711 465.054 629.999 467.749 630.897 469.657 632.485 470.626 634.523 470.959 634.717 470.99 634.913 470.997 635.112 470.997 635.311 470.997 635.512 470.99 635.721 470.99L645.997 470.99 645.997 464.508 645.997 458.086 632.186 458.086C633.685 455.512 635.122 452.968 636.592 450.393 638.21 451.393 639.797 452.362 641.415 453.362L641.415 453.331C641.415 453.301 641.415 453.301 641.385 453.27 639.108 449.574 636.831 445.849 634.554 442.125 634.554 442.064 634.523 442.033 634.493 442.033 634.433 442.033 634.403 442.003 634.375 442.003Z" fill="#FFFFFF" fill-rule="evenodd"/><path d="M794.846 480 777.119 484.497C770.033 489.868 762.739 495.591 759.003 503.561L759.929 504C772.275 498.22 784.651 492.438 797 486.687 796.4 484.439 795.684 482.219 794.876 480.029L794.846 480Z" fill="#DB8E6A" fill-rule="evenodd"/><path d="M712.087 492 712.087 492.03C702.887 493.271 694.083 497.115 687.003 503 701.677 502.615 716.354 502.26 730.997 501.875 730.848 498.593 730.606 495.283 730.304 492Z" fill="#DB8E6A" fill-rule="evenodd"/><path d="M679.466 215.002C677.083 215.002 674.731 215.954 672.954 217.468 670.888 219.231 669.541 221.727 669.003 224.341L668.794 224.575C666.278 222.577 663.587 220.699 660.475 220.023 659.789 219.875 659.075 219.799 658.362 219.799 655.71 219.799 653.039 220.839 651.646 222.989 650 225.573 650.54 228.949 651.915 231.679 653.591 235.025 656.346 237.728 659.246 240.105 663.916 243.922 669.063 247.152 674.449 250 678.309 241.868 683.964 234.352 685.49 225.544 685.879 223.371 686 221.11 685.342 219.024 685.012 217.998 684.472 216.97 683.635 216.295 682.768 215.533 681.629 215.18 680.493 215.062 680.152 215.022 679.807 215.002 679.466 215.002Z" fill="#053B5C" fill-rule="evenodd"/><path d="M739.877 207C739.877 207 732.573 209.221 728.736 210.303L728.736 210.33C728.342 213.371 727.915 216.409 727.488 219.447 727.307 220.558 727.153 221.667 727.003 222.779 727.672 223.508 728.312 224.269 728.981 224.998 732.755 219.096 736.439 213.108 740 207.059L739.877 207Z" fill="#ED867A" fill-rule="evenodd"/><path d="M737.339 175C737.067 175 736.785 175.038 736.519 175.083 729.546 176.19 722.543 177.33 715.541 178.436 714.028 178.675 712.515 178.917 711.003 179.035L711.003 179.186C711.862 187.483 712.722 195.749 714.177 203.955 714.534 205.812 714.888 207.729 715.867 209.346 716.253 210.006 716.787 210.634 717.439 210.964 718.212 211.354 719.072 211.384 719.934 211.384 722.989 211.354 726.045 210.994 729.013 210.305 729.072 210.275 729.102 210.275 729.13 210.247 732.87 209.138 739.99 206.861 739.99 206.861L740.11 206.921C736.638 213.122 733.047 219.261 729.369 225.311 731.118 227.439 732.87 229.535 734.62 231.633 735.362 232.501 736.102 233.399 737.025 233.997 741.889 230.523 746.547 226.78 750.997 222.825L750.94 222.765C750.731 221.927 750.494 221.09 750.257 220.249 748.002 211.953 745.924 203.596 744.025 195.211 744.974 194.041 745.866 192.844 746.43 191.435 747.082 189.847 747.17 187.903 746.28 186.404 745.924 185.835 745.39 185.327 744.767 185.146 744.576 185.088 744.384 185.055 744.192 185.055 744.087 185.055 743.982 185.065 743.878 185.085 743.315 185.206 742.839 185.626 742.452 186.044 741.416 187.063 740.553 188.26 739.873 189.548L739.694 189.46C739.457 185.176 739.16 180.864 738.834 176.58 738.774 176.19 738.744 175.772 738.507 175.443 738.228 175.103 737.797 175 737.339 175Z" fill="#FBB28F" fill-rule="evenodd"/><path d="M739.86 167C739.34 167 738.799 167.184 738.296 167.367 729.743 170.511 720.669 172.128 711.573 172.128 710.645 172.128 709.718 172.11 708.788 172.077 706.699 171.998 704.61 171.853 702.521 171.853 702.185 171.853 701.85 171.855 701.516 171.863 700.918 171.863 700.259 171.924 699.782 172.289 699.211 172.715 699.003 173.564 699.151 174.294 699.271 175.024 699.752 175.662 700.229 176.177 702.084 178.182 704.779 179.124 707.471 179.366 707.948 179.404 708.423 179.422 708.901 179.422 709.562 179.422 710.223 179.389 710.884 179.336 712.41 179.216 713.935 178.971 715.461 178.728 722.524 177.606 729.587 176.45 736.62 175.327 736.889 175.282 737.173 175.243 737.447 175.243 737.909 175.243 738.344 175.348 738.626 175.692 738.865 176.027 738.895 176.45 738.955 176.845 739.284 181.19 739.583 185.563 739.822 189.908L740.003 189.997C740.689 188.691 741.559 187.477 742.605 186.443 742.994 186.02 743.474 185.594 744.042 185.471 744.148 185.451 744.253 185.441 744.359 185.441 744.553 185.441 744.746 185.474 744.94 185.533L745 185.321C743.952 180.065 742.934 174.81 741.888 169.526 741.707 168.612 741.438 167.551 740.601 167.156 740.365 167.046 740.114 167 739.86 167Z" fill="#053B5C" fill-rule="evenodd"/><path d="M727.646 220 727.646 220C723.722 220.745 719.795 221.608 715.868 222.59 711.523 223.811 707.296 225.686 703.85 228.634 700.434 231.582 698.574 235.155 697.197 239.053 696.326 242.536 695.458 245.99 694.649 249.473L694.619 249.473 694.589 249.713C694.438 250.248 694.32 250.783 694.199 251.351L694.229 251.351 689.403 274.065 682 277.608C682 277.608 682.959 280.228 688.565 286.212 688.565 286.212 689.824 287.907 690.843 290.2L707.717 279.513C707.717 279.513 709.006 298.804 708.225 314.077 708.225 314.077 720.958 319 739.299 319 748.615 319 759.379 317.73 770.657 313.899L767.81 266.086 773.653 251.351C774.043 250.338 774.433 249.325 774.823 248.343 774.823 248.343 774.823 248.313 774.853 248.313 775.153 247.51 775.483 246.675 775.812 245.872 776.082 245.187 776.351 244.502 776.59 243.847 776.59 243.817 776.62 243.817 776.62 243.817 778 237.773 776.203 230.867 772.006 226.341 771.166 225.418 769.338 224.198 767.81 223.633 762.025 222.293 756.15 221.28 750.247 220.625L750.247 220.625C750.486 221.46 750.725 222.293 750.936 223.126L750.994 223.186C746.498 227.116 741.794 230.837 736.88 234.26 735.948 233.695 735.201 232.802 734.451 231.94 732.683 229.854 730.914 227.771 729.147 225.658 728.487 224.913 727.858 224.138 727.198 223.396 727.347 222.263 727.498 221.133 727.646 220Z" fill="#40B4E5" fill-rule="evenodd"/><path d="M708.538 314.003C708.508 314.36 708.508 314.717 708.478 315.074L708.418 330.59 708.003 491.997 731.822 491.997 734.471 371.907 737.151 396.728 771.034 485.609 777.199 484.003 794.854 479.424 797 478.86 767.701 389.98 771.034 314.032 771.034 314.032C770.857 314.062 770.707 314.122 770.529 314.15 760.566 317.098 750.181 318.569 739.795 318.569 729.227 318.569 718.658 317.046 708.538 314.003Z" fill="#053B5C" fill-rule="evenodd"/><path d="M687.202 254.002C686.812 254.002 686.429 254.077 686.058 254.135 678.381 255.715 670.677 257.265 663 258.816L663 258.874C664.178 261.63 666.824 263.638 669.706 264.531 671.262 265.02 672.888 265.225 674.521 265.225 675.941 265.225 677.369 265.071 678.764 264.818 681.442 264.328 684.117 263.438 686.441 262.032L686.471 262.117C688 263.554 689.529 264.989 691.028 266.424 691.233 266.626 691.441 266.826 691.646 266.998 692.794 264.128 693.911 261.256 694.998 258.357L694.617 258.213C694.116 257.897 693.587 257.581 693.088 257.236 691.764 256.404 690.44 255.543 689.087 254.711 688.647 254.424 688.205 254.135 687.706 254.051 687.538 254.014 687.37 254.002 687.202 254.002Z" fill="#FBB28F" fill-rule="evenodd"/></g></svg>